# xmcd CD database file
#
# Track frame offsets:
#	150
#	15165
#	27807
#	39505
#	54866
#	74163
#	85684
#	100658
#	113155
#	126132
#
# Disc length: 1897 seconds
#
# Revision: 3
# Processed by: cddbd v1.5.2PL0 Copyright (c) Steve Scherf et al.
# Submitted via: CDex 1.50Beta7
#
DISCID=7107670a
DTITLE=TINA TURNER - Country My Way
DYEAR=2003
DGENRE=Country
TTITLE0=Good Hearted Woman
TTITLE1=If It's All Right With You
TTITLE2=Stand by Your Man
TTITLE3=If This Is Our Last Time
TTITLE4=Loving Him Was Easier(Than Anything I'll Ever Do Again)
TTITLE5=Soul Deep
TTITLE6=We Had It All
TTITLE7=You Ain't Woman Enough(To Take My Man)
TTITLE8=Freedom to Stay
TTITLE9=Lay It Down
EXTD=YEAR: 2003
EXTT0=
EXTT1=
EXTT2=
EXTT3=
EXTT4=
EXTT5=
EXTT6=
EXTT7=
EXTT8=
EXTT9=
PLAYORDER=
